<mxfile host="app.diagrams.net" modified="2023-05-14T06:18:19.543Z" agent="Mozilla/5.0 (Windows NT 10.0; Win64; x64) AppleWebKit/537.36 (KHTML, like Gecko) Chrome/113.0.0.0 Safari/537.36" etag="tXVhIOoBYm4mWWmfdmMq" version="21.2.9" type="device">
  <diagram id="LueVu9AVdcKQogH0RVll" name="第 1 页">
    <mxGraphModel dx="1221" dy="790" grid="1" gridSize="10" guides="1" tooltips="1" connect="1" arrows="1" fold="1" page="1" pageScale="1" pageWidth="827" pageHeight="1169" math="0" shadow="0">
      <root>
        <mxCell id="0" />
        <mxCell id="1" parent="0" />
        <mxCell id="6ZJ0HU7NjOe2KrvccMY--1" value="" style="shape=ext;double=1;rounded=1;whiteSpace=wrap;html=1;fillColor=#fff2cc;strokeColor=#d6b656;movable=0;resizable=0;rotatable=0;deletable=0;editable=0;locked=1;connectable=0;" parent="1" vertex="1">
          <mxGeometry x="110" y="60" width="400" height="330" as="geometry" />
        </mxCell>
        <mxCell id="6ZJ0HU7NjOe2KrvccMY--2" value="&lt;font style=&quot;font-size: 36px;&quot;&gt;开始数据采集&lt;/font&gt;" style="shape=ext;double=1;rounded=1;whiteSpace=wrap;html=1;fillColor=#d5e8d4;strokeColor=#82b366;" parent="1" vertex="1">
          <mxGeometry x="180" y="190" width="270" height="40" as="geometry" />
        </mxCell>
        <mxCell id="6ZJ0HU7NjOe2KrvccMY--3" value="&lt;font style=&quot;font-size: 36px;&quot;&gt;指尖按压检测&lt;/font&gt;" style="shape=ext;double=1;rounded=1;whiteSpace=wrap;html=1;fillColor=#d5e8d4;strokeColor=#82b366;" parent="1" vertex="1">
          <mxGeometry x="180" y="120" width="270" height="40" as="geometry" />
        </mxCell>
        <mxCell id="6ZJ0HU7NjOe2KrvccMY--5" value="&lt;font style=&quot;font-size: 36px;&quot; color=&quot;#3333ff&quot;&gt;摄像头数据采集&lt;/font&gt;" style="text;html=1;align=center;verticalAlign=middle;whiteSpace=wrap;rounded=0;" parent="1" vertex="1">
          <mxGeometry x="140" y="80" width="270" height="30" as="geometry" />
        </mxCell>
        <mxCell id="6ZJ0HU7NjOe2KrvccMY--6" value="" style="endArrow=classic;html=1;rounded=0;exitX=0.5;exitY=1;exitDx=0;exitDy=0;entryX=0.5;entryY=0;entryDx=0;entryDy=0;" parent="1" source="6ZJ0HU7NjOe2KrvccMY--3" target="6ZJ0HU7NjOe2KrvccMY--2" edge="1">
          <mxGeometry width="50" height="50" relative="1" as="geometry">
            <mxPoint x="390" y="430" as="sourcePoint" />
            <mxPoint x="440" y="380" as="targetPoint" />
          </mxGeometry>
        </mxCell>
        <mxCell id="6ZJ0HU7NjOe2KrvccMY--7" value="&lt;font style=&quot;font-size: 24px;&quot;&gt;&lt;b&gt;指尖全覆盖&lt;/b&gt;&lt;/font&gt;" style="text;html=1;strokeColor=none;fillColor=none;align=center;verticalAlign=middle;whiteSpace=wrap;rounded=0;" parent="1" vertex="1">
          <mxGeometry x="340" y="160" width="130" height="30" as="geometry" />
        </mxCell>
        <mxCell id="6ZJ0HU7NjOe2KrvccMY--12" value="&lt;font style=&quot;font-size: 36px;&quot;&gt;心动周期划分&lt;/font&gt;" style="shape=ext;double=1;rounded=1;whiteSpace=wrap;html=1;fillColor=#d5e8d4;strokeColor=#82b366;" parent="1" vertex="1">
          <mxGeometry x="180" y="250" width="270" height="40" as="geometry" />
        </mxCell>
        <mxCell id="6ZJ0HU7NjOe2KrvccMY--13" value="&lt;font style=&quot;font-size: 36px;&quot;&gt;生物特征质量评估&lt;/font&gt;" style="shape=ext;double=1;rounded=1;whiteSpace=wrap;html=1;fillColor=#d5e8d4;strokeColor=#82b366;" parent="1" vertex="1">
          <mxGeometry x="157.5" y="320" width="305" height="40" as="geometry" />
        </mxCell>
        <mxCell id="6ZJ0HU7NjOe2KrvccMY--15" value="" style="endArrow=classic;html=1;rounded=0;exitX=0.5;exitY=1;exitDx=0;exitDy=0;entryX=0.5;entryY=0;entryDx=0;entryDy=0;" parent="1" source="6ZJ0HU7NjOe2KrvccMY--2" target="6ZJ0HU7NjOe2KrvccMY--12" edge="1">
          <mxGeometry width="50" height="50" relative="1" as="geometry">
            <mxPoint x="390" y="320" as="sourcePoint" />
            <mxPoint x="440" y="270" as="targetPoint" />
          </mxGeometry>
        </mxCell>
        <mxCell id="6ZJ0HU7NjOe2KrvccMY--19" value="" style="endArrow=classic;html=1;rounded=0;" parent="1" target="6ZJ0HU7NjOe2KrvccMY--13" edge="1">
          <mxGeometry width="50" height="50" relative="1" as="geometry">
            <mxPoint x="310" y="290" as="sourcePoint" />
            <mxPoint x="325" y="200" as="targetPoint" />
          </mxGeometry>
        </mxCell>
        <mxCell id="6ZJ0HU7NjOe2KrvccMY--20" value="" style="endArrow=classic;html=1;rounded=0;exitX=0.5;exitY=1;exitDx=0;exitDy=0;entryX=1;entryY=0.5;entryDx=0;entryDy=0;" parent="1" source="6ZJ0HU7NjOe2KrvccMY--13" target="6ZJ0HU7NjOe2KrvccMY--2" edge="1">
          <mxGeometry width="50" height="50" relative="1" as="geometry">
            <mxPoint x="390" y="320" as="sourcePoint" />
            <mxPoint x="440" y="270" as="targetPoint" />
            <Array as="points">
              <mxPoint x="310" y="380" />
              <mxPoint x="470" y="380" />
              <mxPoint x="470" y="210" />
            </Array>
          </mxGeometry>
        </mxCell>
        <mxCell id="6ZJ0HU7NjOe2KrvccMY--60" value="" style="shape=flexArrow;endArrow=classic;html=1;rounded=0;entryX=0.5;entryY=0;entryDx=0;entryDy=0;fillColor=#647687;strokeColor=#314354;" parent="1" target="6ZJ0HU7NjOe2KrvccMY--56" edge="1">
          <mxGeometry width="50" height="50" relative="1" as="geometry">
            <mxPoint x="860" y="640" as="sourcePoint" />
            <mxPoint x="440" y="990" as="targetPoint" />
          </mxGeometry>
        </mxCell>
        <mxCell id="6ZJ0HU7NjOe2KrvccMY--67" value="" style="endArrow=classic;html=1;rounded=0;entryX=1;entryY=0.538;entryDx=0;entryDy=0;exitX=0.5;exitY=1;exitDx=0;exitDy=0;entryPerimeter=0;" parent="1" source="6ZJ0HU7NjOe2KrvccMY--63" target="6ZJ0HU7NjOe2KrvccMY--37" edge="1">
          <mxGeometry width="50" height="50" relative="1" as="geometry">
            <mxPoint x="840" y="879.9000000000001" as="sourcePoint" />
            <mxPoint x="840" y="910" as="targetPoint" />
            <Array as="points">
              <mxPoint x="860" y="1120" />
              <mxPoint x="560" y="1120" />
              <mxPoint x="560" y="550" />
            </Array>
          </mxGeometry>
        </mxCell>
        <mxCell id="KNsYd2CcchHTfXmvDLvs-1" value="" style="group" parent="1" vertex="1" connectable="0">
          <mxGeometry x="660" y="100" width="400" height="260" as="geometry" />
        </mxCell>
        <mxCell id="6ZJ0HU7NjOe2KrvccMY--8" value="" style="shape=ext;double=1;rounded=1;whiteSpace=wrap;html=1;fillColor=#ffe6cc;strokeColor=#d79b00;" parent="KNsYd2CcchHTfXmvDLvs-1" vertex="1">
          <mxGeometry width="400" height="260" as="geometry" />
        </mxCell>
        <mxCell id="6ZJ0HU7NjOe2KrvccMY--23" value="&lt;font style=&quot;font-size: 36px;&quot; color=&quot;#3333ff&quot;&gt;动态心波提取&lt;/font&gt;" style="text;html=1;strokeColor=none;fillColor=none;align=center;verticalAlign=middle;whiteSpace=wrap;rounded=0;" parent="KNsYd2CcchHTfXmvDLvs-1" vertex="1">
          <mxGeometry x="10" y="20" width="220" height="30" as="geometry" />
        </mxCell>
        <mxCell id="6ZJ0HU7NjOe2KrvccMY--24" value="&lt;font style=&quot;font-size: 36px;&quot;&gt;动态像素选择&lt;/font&gt;" style="shape=ext;double=1;rounded=1;whiteSpace=wrap;html=1;fillColor=#dae8fc;strokeColor=#6c8ebf;" parent="KNsYd2CcchHTfXmvDLvs-1" vertex="1">
          <mxGeometry x="65" y="60" width="270" height="40" as="geometry" />
        </mxCell>
        <mxCell id="6ZJ0HU7NjOe2KrvccMY--25" value="&lt;font style=&quot;font-size: 36px;&quot;&gt;心波推导&lt;/font&gt;" style="shape=ext;double=1;rounded=1;whiteSpace=wrap;html=1;fillColor=#dae8fc;strokeColor=#6c8ebf;" parent="KNsYd2CcchHTfXmvDLvs-1" vertex="1">
          <mxGeometry x="65" y="130" width="270" height="40" as="geometry" />
        </mxCell>
        <mxCell id="6ZJ0HU7NjOe2KrvccMY--26" value="&lt;font style=&quot;font-size: 36px;&quot;&gt;数据校准和标准化&lt;/font&gt;" style="shape=ext;double=1;rounded=1;whiteSpace=wrap;html=1;fillColor=#dae8fc;strokeColor=#6c8ebf;" parent="KNsYd2CcchHTfXmvDLvs-1" vertex="1">
          <mxGeometry x="50" y="190" width="300" height="40" as="geometry" />
        </mxCell>
        <mxCell id="6ZJ0HU7NjOe2KrvccMY--27" value="" style="endArrow=classic;html=1;rounded=0;entryX=0.5;entryY=0;entryDx=0;entryDy=0;" parent="KNsYd2CcchHTfXmvDLvs-1" target="6ZJ0HU7NjOe2KrvccMY--25" edge="1">
          <mxGeometry width="50" height="50" relative="1" as="geometry">
            <mxPoint x="200" y="100" as="sourcePoint" />
            <mxPoint x="215" y="-180" as="targetPoint" />
          </mxGeometry>
        </mxCell>
        <mxCell id="6ZJ0HU7NjOe2KrvccMY--28" value="" style="endArrow=classic;html=1;rounded=0;entryX=0.5;entryY=0;entryDx=0;entryDy=0;exitX=0.5;exitY=1;exitDx=0;exitDy=0;" parent="KNsYd2CcchHTfXmvDLvs-1" source="6ZJ0HU7NjOe2KrvccMY--25" target="6ZJ0HU7NjOe2KrvccMY--26" edge="1">
          <mxGeometry width="50" height="50" relative="1" as="geometry">
            <mxPoint x="210" y="110" as="sourcePoint" />
            <mxPoint x="210" y="140" as="targetPoint" />
          </mxGeometry>
        </mxCell>
        <mxCell id="KNsYd2CcchHTfXmvDLvs-2" value="" style="group" parent="1" vertex="1" connectable="0">
          <mxGeometry x="660" y="420" width="400" height="260" as="geometry" />
        </mxCell>
        <mxCell id="6ZJ0HU7NjOe2KrvccMY--29" value="" style="shape=ext;double=1;rounded=1;whiteSpace=wrap;html=1;fillColor=#e1d5e7;strokeColor=#9673a6;" parent="KNsYd2CcchHTfXmvDLvs-2" vertex="1">
          <mxGeometry width="400" height="260" as="geometry" />
        </mxCell>
        <mxCell id="6ZJ0HU7NjOe2KrvccMY--31" value="&lt;font style=&quot;font-size: 36px;&quot; color=&quot;#3333ff&quot;&gt;心脏生物特征提取&lt;/font&gt;" style="text;html=1;strokeColor=none;fillColor=none;align=center;verticalAlign=middle;whiteSpace=wrap;rounded=0;" parent="KNsYd2CcchHTfXmvDLvs-2" vertex="1">
          <mxGeometry x="20" y="20" width="290" height="30" as="geometry" />
        </mxCell>
        <mxCell id="6ZJ0HU7NjOe2KrvccMY--32" value="&lt;font style=&quot;font-size: 36px;&quot;&gt;心脏收缩-舒张特征提取&lt;/font&gt;" style="shape=ext;double=1;rounded=1;whiteSpace=wrap;html=1;fillColor=#b0e3e6;strokeColor=#0e8088;" parent="KNsYd2CcchHTfXmvDLvs-2" vertex="1">
          <mxGeometry y="70" width="200" height="100" as="geometry" />
        </mxCell>
        <mxCell id="6ZJ0HU7NjOe2KrvccMY--34" value="&lt;font style=&quot;font-size: 36px;&quot;&gt;心脏非基准特征提取&lt;/font&gt;" style="shape=ext;double=1;rounded=1;whiteSpace=wrap;html=1;fillColor=#b0e3e6;strokeColor=#0e8088;" parent="KNsYd2CcchHTfXmvDLvs-2" vertex="1">
          <mxGeometry x="210" y="70" width="190" height="100" as="geometry" />
        </mxCell>
        <mxCell id="6ZJ0HU7NjOe2KrvccMY--35" value="" style="endArrow=classic;html=1;rounded=0;entryX=0.5;entryY=1;entryDx=0;entryDy=0;exitX=0.5;exitY=1;exitDx=0;exitDy=0;" parent="KNsYd2CcchHTfXmvDLvs-2" source="6ZJ0HU7NjOe2KrvccMY--34" target="6ZJ0HU7NjOe2KrvccMY--29" edge="1">
          <mxGeometry width="50" height="50" relative="1" as="geometry">
            <mxPoint x="290" y="50" as="sourcePoint" />
            <mxPoint x="340" as="targetPoint" />
            <Array as="points">
              <mxPoint x="305" y="200" />
              <mxPoint x="200" y="200" />
            </Array>
          </mxGeometry>
        </mxCell>
        <mxCell id="6ZJ0HU7NjOe2KrvccMY--36" value="" style="endArrow=none;html=1;rounded=0;entryX=0.426;entryY=1.013;entryDx=0;entryDy=0;entryPerimeter=0;" parent="KNsYd2CcchHTfXmvDLvs-2" target="6ZJ0HU7NjOe2KrvccMY--32" edge="1">
          <mxGeometry width="50" height="50" relative="1" as="geometry">
            <mxPoint x="200" y="200" as="sourcePoint" />
            <mxPoint x="340" as="targetPoint" />
            <Array as="points">
              <mxPoint x="140" y="200" />
              <mxPoint x="85" y="200" />
            </Array>
          </mxGeometry>
        </mxCell>
        <mxCell id="KNsYd2CcchHTfXmvDLvs-3" value="" style="group" parent="1" vertex="1" connectable="0">
          <mxGeometry x="660" y="740" width="400" height="350" as="geometry" />
        </mxCell>
        <mxCell id="6ZJ0HU7NjOe2KrvccMY--56" value="" style="shape=ext;double=1;rounded=1;whiteSpace=wrap;html=1;fillColor=#fad9d5;strokeColor=#ae4132;" parent="KNsYd2CcchHTfXmvDLvs-3" vertex="1">
          <mxGeometry width="400" height="350" as="geometry" />
        </mxCell>
        <mxCell id="6ZJ0HU7NjOe2KrvccMY--57" value="&lt;font style=&quot;font-size: 36px;&quot; color=&quot;#3333ff&quot;&gt;合法用户文件配置&lt;/font&gt;" style="text;html=1;strokeColor=none;fillColor=none;align=center;verticalAlign=middle;whiteSpace=wrap;rounded=0;" parent="KNsYd2CcchHTfXmvDLvs-3" vertex="1">
          <mxGeometry x="4" y="30" width="306" height="30" as="geometry" />
        </mxCell>
        <mxCell id="6ZJ0HU7NjOe2KrvccMY--58" value="&lt;font style=&quot;font-size: 36px;&quot;&gt;基于PCA的特征转换&lt;/font&gt;" style="shape=ext;double=1;rounded=1;whiteSpace=wrap;html=1;fillColor=#d0cee2;strokeColor=#56517e;" parent="KNsYd2CcchHTfXmvDLvs-3" vertex="1">
          <mxGeometry x="30" y="70" width="340" height="40" as="geometry" />
        </mxCell>
        <mxCell id="6ZJ0HU7NjOe2KrvccMY--61" value="&lt;font style=&quot;font-size: 36px;&quot;&gt;主成分筛选&lt;/font&gt;" style="shape=ext;double=1;rounded=1;whiteSpace=wrap;html=1;fillColor=#d0cee2;strokeColor=#56517e;" parent="KNsYd2CcchHTfXmvDLvs-3" vertex="1">
          <mxGeometry x="65" y="140" width="270" height="40" as="geometry" />
        </mxCell>
        <mxCell id="6ZJ0HU7NjOe2KrvccMY--62" value="&lt;font style=&quot;font-size: 36px;&quot;&gt;生成配置文件&lt;/font&gt;" style="shape=ext;double=1;rounded=1;whiteSpace=wrap;html=1;fillColor=#d0cee2;strokeColor=#56517e;" parent="KNsYd2CcchHTfXmvDLvs-3" vertex="1">
          <mxGeometry x="65" y="210" width="270" height="40" as="geometry" />
        </mxCell>
        <mxCell id="6ZJ0HU7NjOe2KrvccMY--63" value="&lt;font style=&quot;font-size: 36px;&quot;&gt;验证模型加载&lt;/font&gt;" style="shape=ext;double=1;rounded=1;whiteSpace=wrap;html=1;fillColor=#d0cee2;strokeColor=#56517e;" parent="KNsYd2CcchHTfXmvDLvs-3" vertex="1">
          <mxGeometry x="65" y="280" width="270" height="40" as="geometry" />
        </mxCell>
        <mxCell id="6ZJ0HU7NjOe2KrvccMY--64" value="" style="endArrow=classic;html=1;rounded=0;entryX=0.5;entryY=0;entryDx=0;entryDy=0;exitX=0.5;exitY=0.314;exitDx=0;exitDy=0;exitPerimeter=0;" parent="KNsYd2CcchHTfXmvDLvs-3" source="6ZJ0HU7NjOe2KrvccMY--56" target="6ZJ0HU7NjOe2KrvccMY--61" edge="1">
          <mxGeometry width="50" height="50" relative="1" as="geometry">
            <mxPoint x="-220" y="400" as="sourcePoint" />
            <mxPoint x="-170" y="350" as="targetPoint" />
          </mxGeometry>
        </mxCell>
        <mxCell id="6ZJ0HU7NjOe2KrvccMY--65" value="" style="endArrow=classic;html=1;rounded=0;entryX=0.5;entryY=0;entryDx=0;entryDy=0;exitX=0.5;exitY=1;exitDx=0;exitDy=0;" parent="KNsYd2CcchHTfXmvDLvs-3" source="6ZJ0HU7NjOe2KrvccMY--61" target="6ZJ0HU7NjOe2KrvccMY--62" edge="1">
          <mxGeometry width="50" height="50" relative="1" as="geometry">
            <mxPoint x="210" y="119.90000000000009" as="sourcePoint" />
            <mxPoint x="210" y="150" as="targetPoint" />
          </mxGeometry>
        </mxCell>
        <mxCell id="6ZJ0HU7NjOe2KrvccMY--66" value="" style="endArrow=classic;html=1;rounded=0;entryX=0.5;entryY=0;entryDx=0;entryDy=0;exitX=0.5;exitY=1;exitDx=0;exitDy=0;" parent="KNsYd2CcchHTfXmvDLvs-3" source="6ZJ0HU7NjOe2KrvccMY--62" target="6ZJ0HU7NjOe2KrvccMY--63" edge="1">
          <mxGeometry width="50" height="50" relative="1" as="geometry">
            <mxPoint x="220" y="129.9000000000001" as="sourcePoint" />
            <mxPoint x="220" y="160" as="targetPoint" />
          </mxGeometry>
        </mxCell>
        <mxCell id="KNsYd2CcchHTfXmvDLvs-4" value="" style="group" parent="1" vertex="1" connectable="0">
          <mxGeometry x="100" y="410" width="400" height="260" as="geometry" />
        </mxCell>
        <mxCell id="6ZJ0HU7NjOe2KrvccMY--37" value="" style="shape=ext;double=1;rounded=1;whiteSpace=wrap;html=1;fillColor=#bac8d3;strokeColor=#23445d;" parent="KNsYd2CcchHTfXmvDLvs-4" vertex="1">
          <mxGeometry width="400" height="260" as="geometry" />
        </mxCell>
        <mxCell id="6ZJ0HU7NjOe2KrvccMY--38" value="&lt;font style=&quot;font-size: 36px;&quot; color=&quot;#3333ff&quot;&gt;用户验证模型&lt;/font&gt;" style="text;html=1;strokeColor=none;fillColor=none;align=center;verticalAlign=middle;whiteSpace=wrap;rounded=0;" parent="KNsYd2CcchHTfXmvDLvs-4" vertex="1">
          <mxGeometry x="20" y="10" width="220" height="30" as="geometry" />
        </mxCell>
        <mxCell id="6ZJ0HU7NjOe2KrvccMY--39" value="&lt;font style=&quot;font-size: 36px;&quot;&gt;基于PCA的特征转换&lt;/font&gt;" style="shape=ext;double=1;rounded=1;whiteSpace=wrap;html=1;fillColor=#fff2cc;gradientColor=#ffd966;strokeColor=#d6b656;" parent="KNsYd2CcchHTfXmvDLvs-4" vertex="1">
          <mxGeometry x="40" y="50" width="340" height="40" as="geometry" />
        </mxCell>
        <mxCell id="6ZJ0HU7NjOe2KrvccMY--40" value="&lt;font style=&quot;font-size: 36px;&quot;&gt;距离计算与阈值匹配&lt;/font&gt;" style="shape=ext;double=1;rounded=1;whiteSpace=wrap;html=1;fillColor=#fff2cc;gradientColor=#ffd966;strokeColor=#d6b656;" parent="KNsYd2CcchHTfXmvDLvs-4" vertex="1">
          <mxGeometry x="45" y="120" width="330" height="40" as="geometry" />
        </mxCell>
        <mxCell id="6ZJ0HU7NjOe2KrvccMY--41" value="&lt;font style=&quot;font-size: 36px;&quot;&gt;步长选择&lt;/font&gt;" style="shape=ext;double=1;rounded=1;whiteSpace=wrap;html=1;fillColor=#fff2cc;gradientColor=#ffd966;strokeColor=#d6b656;" parent="KNsYd2CcchHTfXmvDLvs-4" vertex="1">
          <mxGeometry x="75" y="180" width="270" height="40" as="geometry" />
        </mxCell>
        <mxCell id="6ZJ0HU7NjOe2KrvccMY--43" value="" style="endArrow=classic;html=1;rounded=0;exitX=0.5;exitY=1;exitDx=0;exitDy=0;" parent="KNsYd2CcchHTfXmvDLvs-4" source="6ZJ0HU7NjOe2KrvccMY--39" target="6ZJ0HU7NjOe2KrvccMY--40" edge="1">
          <mxGeometry width="50" height="50" relative="1" as="geometry">
            <mxPoint x="220" y="-550" as="sourcePoint" />
            <mxPoint x="220" y="-520" as="targetPoint" />
          </mxGeometry>
        </mxCell>
        <mxCell id="6ZJ0HU7NjOe2KrvccMY--44" value="" style="endArrow=classic;html=1;rounded=0;exitX=0.5;exitY=1;exitDx=0;exitDy=0;" parent="KNsYd2CcchHTfXmvDLvs-4" source="6ZJ0HU7NjOe2KrvccMY--40" target="6ZJ0HU7NjOe2KrvccMY--41" edge="1">
          <mxGeometry width="50" height="50" relative="1" as="geometry">
            <mxPoint x="220" y="100" as="sourcePoint" />
            <mxPoint x="220" y="130" as="targetPoint" />
          </mxGeometry>
        </mxCell>
        <mxCell id="KNsYd2CcchHTfXmvDLvs-5" value="" style="shape=flexArrow;endArrow=classic;html=1;rounded=0;entryX=0;entryY=0.5;entryDx=0;entryDy=0;fillColor=#647687;strokeColor=#314354;" parent="1" target="6ZJ0HU7NjOe2KrvccMY--8" edge="1">
          <mxGeometry width="50" height="50" relative="1" as="geometry">
            <mxPoint x="510" y="230" as="sourcePoint" />
            <mxPoint x="650" y="490" as="targetPoint" />
          </mxGeometry>
        </mxCell>
        <mxCell id="KNsYd2CcchHTfXmvDLvs-6" value="" style="group" parent="1" vertex="1" connectable="0">
          <mxGeometry x="95.5" y="760" width="439" height="230" as="geometry" />
        </mxCell>
        <mxCell id="6ZJ0HU7NjOe2KrvccMY--50" value="" style="endArrow=classic;html=1;rounded=0;exitX=0.5;exitY=1;exitDx=0;exitDy=0;" parent="KNsYd2CcchHTfXmvDLvs-6" source="6ZJ0HU7NjOe2KrvccMY--49" edge="1">
          <mxGeometry relative="1" as="geometry">
            <mxPoint x="185" y="-10" as="sourcePoint" />
            <mxPoint x="204.5" y="180" as="targetPoint" />
          </mxGeometry>
        </mxCell>
        <mxCell id="6ZJ0HU7NjOe2KrvccMY--51" value="是" style="edgeLabel;resizable=0;html=1;align=center;verticalAlign=middle;" parent="6ZJ0HU7NjOe2KrvccMY--50" connectable="0" vertex="1">
          <mxGeometry relative="1" as="geometry" />
        </mxCell>
        <mxCell id="6ZJ0HU7NjOe2KrvccMY--49" value="&lt;font style=&quot;font-size: 24px;&quot;&gt;步长范围内的心动周期均匹配成功&lt;/font&gt;" style="rhombus;whiteSpace=wrap;html=1;fillColor=#ffcccc;strokeColor=#36393d;" parent="KNsYd2CcchHTfXmvDLvs-6" vertex="1">
          <mxGeometry x="-15.5" y="-20" width="440" height="130" as="geometry" />
        </mxCell>
        <mxCell id="YystwFp0mXTOJZBFrrXr-1" value="" style="edgeStyle=orthogonalEdgeStyle;rounded=0;orthogonalLoop=1;jettySize=auto;html=1;" edge="1" parent="KNsYd2CcchHTfXmvDLvs-6" source="6ZJ0HU7NjOe2KrvccMY--54" target="6ZJ0HU7NjOe2KrvccMY--49">
          <mxGeometry relative="1" as="geometry" />
        </mxCell>
        <mxCell id="YystwFp0mXTOJZBFrrXr-2" value="&lt;span style=&quot;font-size: 36px;&quot;&gt;是&lt;/span&gt;" style="edgeLabel;html=1;align=center;verticalAlign=middle;resizable=0;points=[];" vertex="1" connectable="0" parent="YystwFp0mXTOJZBFrrXr-1">
          <mxGeometry x="-0.019" y="-5" relative="1" as="geometry">
            <mxPoint as="offset" />
          </mxGeometry>
        </mxCell>
        <mxCell id="6ZJ0HU7NjOe2KrvccMY--54" value="&lt;font style=&quot;font-size: 36px;&quot;&gt;验证通过&lt;/font&gt;" style="rounded=1;whiteSpace=wrap;html=1;fillColor=#cdeb8b;strokeColor=#36393d;" parent="KNsYd2CcchHTfXmvDLvs-6" vertex="1">
          <mxGeometry x="104.5" y="180" width="200" height="50" as="geometry" />
        </mxCell>
        <mxCell id="KNsYd2CcchHTfXmvDLvs-7" value="" style="shape=flexArrow;endArrow=classic;html=1;rounded=0;entryX=0.975;entryY=0.423;entryDx=0;entryDy=0;fillColor=#647687;strokeColor=#314354;exitX=-0.002;exitY=0.382;exitDx=0;exitDy=0;entryPerimeter=0;exitPerimeter=0;" parent="1" source="6ZJ0HU7NjOe2KrvccMY--29" target="6ZJ0HU7NjOe2KrvccMY--37" edge="1">
          <mxGeometry width="50" height="50" relative="1" as="geometry">
            <mxPoint x="650" y="640" as="sourcePoint" />
            <mxPoint x="650" y="740" as="targetPoint" />
          </mxGeometry>
        </mxCell>
        <mxCell id="KNsYd2CcchHTfXmvDLvs-8" value="" style="shape=flexArrow;endArrow=classic;html=1;rounded=0;fillColor=#647687;strokeColor=#314354;" parent="1" edge="1">
          <mxGeometry width="50" height="50" relative="1" as="geometry">
            <mxPoint x="859.5" y="360" as="sourcePoint" />
            <mxPoint x="860" y="420" as="targetPoint" />
          </mxGeometry>
        </mxCell>
        <mxCell id="KNsYd2CcchHTfXmvDLvs-10" value="" style="edgeStyle=orthogonalEdgeStyle;rounded=0;orthogonalLoop=1;jettySize=auto;html=1;" parent="1" source="6ZJ0HU7NjOe2KrvccMY--56" target="6ZJ0HU7NjOe2KrvccMY--29" edge="1">
          <mxGeometry relative="1" as="geometry" />
        </mxCell>
        <mxCell id="KNsYd2CcchHTfXmvDLvs-11" value="" style="shape=flexArrow;endArrow=classic;html=1;rounded=0;fillColor=#647687;strokeColor=#314354;entryX=0.5;entryY=0;entryDx=0;entryDy=0;exitX=0.5;exitY=1;exitDx=0;exitDy=0;" parent="1" source="6ZJ0HU7NjOe2KrvccMY--37" target="6ZJ0HU7NjOe2KrvccMY--49" edge="1">
          <mxGeometry width="50" height="50" relative="1" as="geometry">
            <mxPoint x="869.5" y="370" as="sourcePoint" />
            <mxPoint x="870" y="430" as="targetPoint" />
          </mxGeometry>
        </mxCell>
        <mxCell id="6ZJ0HU7NjOe2KrvccMY--55" value="&lt;font style=&quot;font-size: 36px;&quot;&gt;验证失败&lt;/font&gt;" style="rounded=1;whiteSpace=wrap;html=1;fillColor=#d80073;strokeColor=#A50040;fontColor=#ffffff;" parent="1" vertex="1">
          <mxGeometry x="290" y="1050" width="200" height="50" as="geometry" />
        </mxCell>
        <mxCell id="6ZJ0HU7NjOe2KrvccMY--52" value="" style="endArrow=classic;html=1;rounded=0;exitX=1;exitY=0.5;exitDx=0;exitDy=0;entryX=1;entryY=0.5;entryDx=0;entryDy=0;" parent="1" source="6ZJ0HU7NjOe2KrvccMY--49" edge="1" target="6ZJ0HU7NjOe2KrvccMY--55">
          <mxGeometry relative="1" as="geometry">
            <mxPoint x="230.5" y="850" as="sourcePoint" />
            <mxPoint x="550" y="1080" as="targetPoint" />
            <Array as="points">
              <mxPoint x="540" y="805" />
              <mxPoint x="540" y="1075" />
            </Array>
          </mxGeometry>
        </mxCell>
        <mxCell id="6ZJ0HU7NjOe2KrvccMY--53" value="&lt;font style=&quot;font-size: 36px;&quot;&gt;否&lt;/font&gt;" style="edgeLabel;resizable=0;html=1;align=center;verticalAlign=middle;" parent="6ZJ0HU7NjOe2KrvccMY--52" connectable="0" vertex="1">
          <mxGeometry relative="1" as="geometry" />
        </mxCell>
      </root>
    </mxGraphModel>
  </diagram>
</mxfile>
